<?xml version="1.0" standalone="no"?>
<!DOCTYPE svg PUBLIC "-//W3C//DTD SVG 20010904//EN"
 "http://www.w3.org/TR/2001/REC-SVG-20010904/DTD/svg10.dtd">
<svg version="1.0" xmlns="http://www.w3.org/2000/svg"
 width="260.000000pt" height="260.000000pt" viewBox="0 0 260.000000 260.000000"
 preserveAspectRatio="xMidYMid meet">
<metadata>
Created by potrace 1.11, written by Peter Selinger 2001-2013
</metadata>
<g transform="translate(0.000000,260.000000) scale(0.100000,-0.100000)"
fill="#000000" stroke="none">
<path d="M0 1300 l0 -1300 1300 0 1300 0 0 1300 0 1300 -1300 0 -1300 0 0
-1300z m2108 425 c71 -32 132 -92 132 -130 0 -39 -33 -65 -83 -65 -47 0 -64
10 -90 52 -35 56 -174 64 -280 15 -142 -65 -232 -222 -166 -288 19 -19 29 -21
84 -16 34 3 113 18 176 33 153 36 295 39 355 7 121 -64 147 -208 66 -368 -76
-151 -304 -276 -532 -292 -151 -10 -255 38 -306 143 -25 51 -26 57 -12 92 17
44 54 68 92 58 21 -5 33 -20 52 -60 35 -77 63 -99 132 -104 122 -9 279 54 378
152 66 65 84 104 84 184 0 94 -65 111 -262 71 -263 -54 -288 -57 -363 -38 -31
8 -56 24 -79 49 -85 95 -48 261 88 388 149 139 375 189 534 117z m-1557 6 l24
-19 -4 -199 -3 -198 247 14 248 15 -5 183 c-6 202 -5 206 59 219 28 6 93 -19
93 -36 0 -3 1 -228 1 -500 l1 -495 -32 -19 c-41 -24 -94 -13 -123 26 -18 24
-19 32 -9 66 7 24 12 113 12 228 l0 189 -246 -14 -246 -15 3 -229 4 -229 -25
-20 c-19 -16 -35 -19 -68 -15 -53 6 -75 26 -73 64 1 15 4 115 7 220 4 164 3
196 -10 215 -20 29 -20 67 0 96 14 20 16 53 14 220 -1 108 -2 203 -1 210 1 15
56 41 87 42 12 0 32 -9 45 -19z"/>
</g>
</svg>
